<svg{{ with .size }} height="{{ . }}" {{ end }} style="enable-background:new 0 0 67 67;" version="1.1" viewBox="0 0 67 67" width="{{ .size }}" xml:space="preserve" xmlns="http://www.w3.org/2000/svg" xmlns:xlink="http://www.w3.org/1999/xlink"><path d="M33.51,16.33A17.17,17.17,0,1,0,50.68,33.5,17.14,17.14,0,0,0,33.51,16.33Zm0,28.34A11.17,11.17,0,1,1,44.67,33.5,11.19,11.19,0,0,1,33.51,44.67ZM55.39,15.62a4,4,0,1,1-4-4A4,4,0,0,1,55.39,15.62Zm11.37,4.07c-.25-5.37-1.48-10.12-5.41-14S52.68.51,47.32.24c-5.53-.31-22.11-.31-27.64,0-5.35.26-10.1,1.48-14,5.4S.5,14.31.24,19.67c-.32,5.53-.32,22.11,0,27.64.25,5.37,1.48,10.12,5.41,14s8.67,5.14,14,5.41c5.53.31,22.11.31,27.64,0,5.36-.26,10.12-1.48,14-5.41s5.15-8.67,5.41-14c.32-5.53.32-22.09,0-27.62ZM59.62,53.25a11.32,11.32,0,0,1-6.37,6.36C48.84,61.36,38.38,61,33.51,61s-15.35.39-19.75-1.35A11.27,11.27,0,0,1,7.4,53.25C5.65,48.84,6.05,38.37,6.05,33.5S5.66,18.15,7.4,13.75a11.3,11.3,0,0,1,6.36-6.36C18.17,5.64,28.63,6,33.51,6s15.35-.39,19.74,1.35a11.29,11.29,0,0,1,6.37,6.36C61.37,18.16,61,28.63,61,33.5S61.37,48.85,59.62,53.25Z" style="fill-rule:evenodd;clip-rule:evenodd;fill:{{ .fill }};"/></svg>
