<svg{{ with .size }} height="{{ . }}" {{ end }} style="enable-background:new 0 0 67 67;" version="1.1" viewBox="0 0 67 67" width="{{ .size }}" xml:space="preserve" xmlns="http://www.w3.org/2000/svg" xmlns:xlink="http://www.w3.org/1999/xlink"><path d="M60.11,19.85c0,.6,0,1.19,0,1.79,0,18.15-13.82,39.07-39.07,39.07A38.83,38.83,0,0,1,0,54.54a28,28,0,0,0,3.32.17,27.47,27.47,0,0,0,17-5.86A13.77,13.77,0,0,1,7.52,39.32a17.21,17.21,0,0,0,2.6.22,14.41,14.41,0,0,0,3.61-.47,13.74,13.74,0,0,1-11-13.48v-.17a13.9,13.9,0,0,0,6.21,1.75A13.76,13.76,0,0,1,4.68,8.8,39.06,39.06,0,0,0,33,23.17,15.66,15.66,0,0,1,32.65,20a13.74,13.74,0,0,1,23.76-9.39,27,27,0,0,0,8.72-3.32,13.69,13.69,0,0,1-6,7.57A27.38,27.38,0,0,0,67,12.75a29.41,29.41,0,0,1-6.89,7.1Z" style="fill-rule:evenodd;clip-rule:evenodd;fill:{{ .fill }};"/></svg>