<svg{{ with .size }} height="{{ . }}" {{ end }} style="enable-background:new 0 0 67 67;" version="1.1" viewBox="0 0 67 67" width="{{ .size }}" xml:space="preserve" xmlns="http://www.w3.org/2000/svg" xmlns:xlink="http://www.w3.org/1999/xlink"><path d="M57.12,9.74A33.21,33.21,0,0,0,4.87,49.8L.16,67l17.6-4.62a33.1,33.1,0,0,0,15.87,4h0A33.21,33.21,0,0,0,57.12,9.74ZM33.64,60.82h0A27.61,27.61,0,0,1,19.58,57l-1-.6L8.13,59.11l2.79-10.18-.66-1A27.59,27.59,0,1,1,33.64,60.82ZM48.78,40.15c-.83-.42-4.91-2.42-5.67-2.7s-1.32-.41-1.87.42-2.14,2.7-2.63,3.25-1,.62-1.79.21a22.6,22.6,0,0,1-6.67-4.12,24.86,24.86,0,0,1-4.62-5.75c-.48-.83-.05-1.28.36-1.69s.83-1,1.25-1.45A6,6,0,0,0,28,26.93a1.53,1.53,0,0,0-.07-1.45c-.21-.42-1.87-4.5-2.56-6.16S24,17.92,23.48,17.9s-1,0-1.59,0a3,3,0,0,0-2.22,1,9.31,9.31,0,0,0-2.9,6.92c0,4.09,3,8,3.39,8.59S26,43.34,34.33,46.93a45.56,45.56,0,0,0,4.73,1.75,11.42,11.42,0,0,0,5.22.33c1.6-.24,4.91-2,5.6-3.95a7,7,0,0,0,.49-3.94C50.16,40.77,49.61,40.57,48.78,40.15Z" style="fill-rule:evenodd;clip-rule:evenodd;fill:{{ .fill }};"/></svg>